<svg width="20" height="20" fill="currentColor" xmlns="http://www.w3.org/2000/svg"><path fill-rule="evenodd" clip-rule="evenodd" d="m16.965 7.502 1.95 2.723c.091.13.113.292.06.44a.514.514 0 0 1-.332.311l-6.365 2a.543.543 0 0 1-.605-.196l-1.671-2.377L8.33 12.78a.543.543 0 0 1-.606.197l-6.364-2a.514.514 0 0 1-.333-.313.479.479 0 0 1 .06-.44l1.95-2.722-1.95-2.723a.479.479 0 0 1-.06-.44.514.514 0 0 1 .333-.312l6.364-2a.54.54 0 0 1 .606.196L10 4.6l1.672-2.377a.54.54 0 0 1 .605-.196l6.365 2a.514.514 0 0 1 .332.312c.053.148.031.31-.06.44l-1.95 2.723Zm-11.625 0 4.662 1.473 4.662-1.473-4.662-1.474L5.34 7.502Z"></path><path d="M10.795 13.335c.403.573 1.153.802 1.817.59l4.247-1.342v2.92a.503.503 0 0 1-.36.474l-6.328 2a.641.641 0 0 1-.17.026.58.58 0 0 1-.11-.011h-.002a.503.503 0 0 1-.057-.016l-6.326-1.999a.503.503 0 0 1-.36-.474v-2.92l4.243 1.341c.668.214 1.418-.018 1.82-.59l.793-1.127.793 1.127Z"></path></svg>