<svg width="264" height="251" viewBox="0 0 264 251" fill="none" xmlns="http://www.w3.org/2000/svg">
<g clip-path="url(#clip0_341_578)">
<path d="M129.54 104.82L129.13 105.12L128.72 104.82L129.13 104.26L129.54 104.82Z" fill="url(#paint0_linear_341_578)"/>
<path d="M36.28 207.48L106.57 184.65V250.81H50.37L36.28 207.48Z" fill="url(#paint1_linear_341_578)"/>
<path d="M155.62 183.45L227.63 206.85L213.34 250.81H155.62V183.45Z" fill="url(#paint2_linear_341_578)"/>
<path d="M182.7 36.94L129.35 105.97L79.8301 37.8L131.86 0L182.7 36.94Z" fill="url(#paint3_linear_341_578)"/>
<path d="M40.14 66.63L91.88 137.84L21.13 160.83L0 95.8L40.14 66.63Z" fill="url(#paint4_linear_341_578)"/>
<path d="M263.71 95.8L242.79 160.2L168.19 135.96L220.28 64.25L263.71 95.8Z" fill="url(#paint5_linear_341_578)"/>
<path d="M129.54 104.82L129.13 105.12L128.72 104.82L129.13 104.26L129.54 104.82Z" fill="#161920"/>
<path d="M129.54 104.82L129.13 105.12L128.72 104.82L129.13 104.26L129.54 104.82Z" fill="#161920"/>
<path d="M131.86 25.36L23.02 104.44L64.59 232.39H199.12L240.7 104.44L131.86 25.36Z" fill="url(#paint6_linear_341_578)"/>
<path d="M131.86 53.31L49.5901 113.08L81.0101 209.79H182.7L214.12 113.08L131.86 53.31Z" fill="url(#paint7_linear_341_578)"/>
<path d="M23.02 104.44L49.59 113.08L131.86 53.31V25.36L23.02 104.44Z" fill="url(#paint8_linear_341_578)"/>
<path d="M214.12 113.08L240.7 104.44L199.12 232.39L182.7 209.79L214.12 113.08Z" fill="url(#paint9_linear_341_578)"/>
<path d="M64.5901 232.39L81.0101 209.79H182.7L199.12 232.39H64.5901Z" fill="url(#paint10_linear_341_578)"/>
<path d="M157.52 97H139.53V176.68H157.52V97Z" fill="#24100B"/>
<path d="M123.99 97H106V176.68H123.99V97Z" fill="#24100B"/>
</g>
<defs>
<linearGradient id="paint0_linear_341_578" x1="129.13" y1="104.98" x2="129.14" y2="104.4" gradientUnits="userSpaceOnUse">
<stop stop-color="white"/>
<stop offset="0.05" stop-color="#F0F7FF"/>
<stop offset="0.28" stop-color="#ACD1FD"/>
<stop offset="0.39" stop-color="#90B0E4"/>
<stop offset="0.49" stop-color="#7997D0"/>
<stop offset="0.55" stop-color="#718DC9"/>
<stop offset="0.93" stop-color="#3B4D8A"/>
</linearGradient>
<linearGradient id="paint1_linear_341_578" x1="49.83" y1="263.75" x2="95.18" y2="191.09" gradientUnits="userSpaceOnUse">
<stop stop-color="white"/>
<stop offset="0.05" stop-color="#F0F7FF"/>
<stop offset="0.28" stop-color="#ACD1FD"/>
<stop offset="0.39" stop-color="#90B0E4"/>
<stop offset="0.49" stop-color="#7997D0"/>
<stop offset="0.55" stop-color="#718DC9"/>
<stop offset="0.93" stop-color="#3B4D8A"/>
</linearGradient>
<linearGradient id="paint2_linear_341_578" x1="205.64" y1="266.36" x2="179.66" y2="196.78" gradientUnits="userSpaceOnUse">
<stop stop-color="white"/>
<stop offset="0.05" stop-color="#F0F7FF"/>
<stop offset="0.28" stop-color="#ACD1FD"/>
<stop offset="0.39" stop-color="#90B0E4"/>
<stop offset="0.49" stop-color="#7997D0"/>
<stop offset="0.55" stop-color="#718DC9"/>
<stop offset="0.93" stop-color="#3B4D8A"/>
</linearGradient>
<linearGradient id="paint3_linear_341_578" x1="125.01" y1="-8.83" x2="135.14" y2="66.03" gradientUnits="userSpaceOnUse">
<stop stop-color="white"/>
<stop offset="0.05" stop-color="#F0F7FF"/>
<stop offset="0.28" stop-color="#ACD1FD"/>
<stop offset="0.39" stop-color="#90B0E4"/>
<stop offset="0.49" stop-color="#7997D0"/>
<stop offset="0.55" stop-color="#718DC9"/>
<stop offset="0.93" stop-color="#3B4D8A"/>
</linearGradient>
<linearGradient id="paint4_linear_341_578" x1="-46.29" y1="105.13" x2="79.66" y2="119.22" gradientUnits="userSpaceOnUse">
<stop stop-color="white"/>
<stop offset="0.05" stop-color="#F0F7FF"/>
<stop offset="0.28" stop-color="#ACD1FD"/>
<stop offset="0.39" stop-color="#90B0E4"/>
<stop offset="0.49" stop-color="#7997D0"/>
<stop offset="0.55" stop-color="#718DC9"/>
<stop offset="0.93" stop-color="#3B4D8A"/>
</linearGradient>
<linearGradient id="paint5_linear_341_578" x1="287.19" y1="95.13" x2="208.36" y2="119.35" gradientUnits="userSpaceOnUse">
<stop stop-color="white"/>
<stop offset="0.05" stop-color="#F0F7FF"/>
<stop offset="0.28" stop-color="#ACD1FD"/>
<stop offset="0.39" stop-color="#90B0E4"/>
<stop offset="0.49" stop-color="#7997D0"/>
<stop offset="0.55" stop-color="#718DC9"/>
<stop offset="0.93" stop-color="#3B4D8A"/>
</linearGradient>
<linearGradient id="paint6_linear_341_578" x1="129.93" y1="199.64" x2="132.79" y2="58.07" gradientUnits="userSpaceOnUse">
<stop stop-color="#92AAE1"/>
<stop offset="0.38" stop-color="#96AEE5"/>
<stop offset="0.79" stop-color="#A3BAEF"/>
<stop offset="1" stop-color="#ADC4F7"/>
</linearGradient>
<linearGradient id="paint7_linear_341_578" x1="135.35" y1="71.2" x2="115.53" y2="309" gradientUnits="userSpaceOnUse">
<stop stop-color="white"/>
<stop offset="0.05" stop-color="#F0F7FF"/>
<stop offset="0.28" stop-color="#ACD1FD"/>
<stop offset="0.39" stop-color="#90B0E4"/>
<stop offset="0.49" stop-color="#7997D0"/>
<stop offset="0.55" stop-color="#718DC9"/>
</linearGradient>
<linearGradient id="paint8_linear_341_578" x1="151.43" y1="26.12" x2="38.15" y2="106.54" gradientUnits="userSpaceOnUse">
<stop stop-color="#C2D5FF"/>
<stop offset="0.64" stop-color="#C6D9FF"/>
<stop offset="0.82" stop-color="#C9DBFF"/>
</linearGradient>
<linearGradient id="paint9_linear_341_578" x1="232.83" y1="60.58" x2="187.91" y2="265.79" gradientUnits="userSpaceOnUse">
<stop stop-color="#5365A4"/>
<stop offset="0.25" stop-color="#5769A8"/>
<stop offset="0.52" stop-color="#6276B3"/>
<stop offset="0.8" stop-color="#738BC6"/>
<stop offset="1" stop-color="#85A0D9"/>
</linearGradient>
<linearGradient id="paint10_linear_341_578" x1="131.99" y1="207.82" x2="131.77" y2="249.21" gradientUnits="userSpaceOnUse">
<stop offset="0.38" stop-color="#5365A4"/>
<stop offset="0.46" stop-color="#5769A8"/>
<stop offset="0.54" stop-color="#6276B3"/>
<stop offset="0.62" stop-color="#738BC6"/>
<stop offset="0.68" stop-color="#85A0D9"/>
</linearGradient>
<clipPath id="clip0_341_578">
<rect width="263.71" height="250.8" fill="white"/>
</clipPath>
</defs>
</svg>
